<svg xmlns="http://www.w3.org/2000/svg"
   xmlns:xlink="http://www.w3.org/1999/xlink"
   version="1.1"
   id="procedure_conv" width="100%" height="100%"  viewBox="-6 -6 1004 473">
<desc>
XCircuit Version 3.9
File "procedure_mono.ps" Page 1
</desc>
<g stroke="black">
<path d="M32,45 L256,45 " fill="none" stroke-width="2" stroke-linejoin="bevel" stroke-linecap="round" stroke="#000000" />
<path d="M32,381 L576,381 " fill="none" style="stroke-dasharray:4,4" stroke-width="2" stroke-linecap="butt" stroke-linejoin="bevel" stroke="#000000" />
<g transform="matrix(   1    0   -0    1   0  29)" fill="#000000" >
<text stroke="none" font-family="Helvetica" font-size="40" ><tspan x="0" y="0">Vip</tspan>
</text></g>
<g transform="matrix(   1    0   -0    1   0 365)" fill="#000000" >
<text stroke="none" font-family="Helvetica" font-size="40" ><tspan x="0" y="0">Vin</tspan>
</text></g>
<path d="M416,301 L320,301 " fill="none" stroke-width="2" stroke-linejoin="bevel" stroke-linecap="round" stroke="#000000" />
<path d="M256,45 C272,45 288,301 320,301 " fill="none" stroke-width="2" stroke-linejoin="bevel" stroke-linecap="round" stroke="#000000" />
<path d="M480,429 L736,429 " fill="none" stroke-width="2" stroke-linejoin="bevel" stroke-linecap="round" stroke="#000000" />
<path d="M416,301 C432,301 448,429 480,429 " fill="none" stroke-width="2" stroke-linejoin="bevel" stroke-linecap="round" stroke="#000000" />
<path d="M640,445 L896,445 " fill="none" style="stroke-dasharray:4,4" stroke-width="2" stroke-linecap="butt" stroke-linejoin="bevel" stroke="#000000" />
<path d="M576,381 C592,381 608,445 640,445 " fill="none" style="stroke-dasharray:4,4" stroke-width="2" stroke-linecap="butt" stroke-linejoin="bevel" stroke="#000000" />
<path d="M800,461 L896,461 " fill="none" stroke-width="2" stroke-linejoin="bevel" stroke-linecap="round" stroke="#000000" />
<path d="M736,429 C752,429 768,461 800,461 " fill="none" stroke-width="2" stroke-linejoin="bevel" stroke-linecap="round" stroke="#000000" />
<ellipse cx="928" cy="461" rx="6" ry="6" fill="#000000" stroke="none" />
<ellipse cx="960" cy="461" rx="6" ry="6" fill="#000000" stroke="none" />
<ellipse cx="992" cy="461" rx="6" ry="6" fill="#000000" stroke="none" />
</g>
</svg>
